<svg width="23" height="23" viewBox="0 0 23 23" fill="none" xmlns="http://www.w3.org/2000/svg">
<path fill-rule="evenodd" clip-rule="evenodd" d="M8.2478 13.0341L11.5019 15.2591L14.6395 13.095L21.6713 20.0331C21.4861 20.0928 21.2885 20.125 21.0833 20.125H1.91667C1.66355 20.125 1.42188 20.0759 1.20068 19.9868L8.2478 13.0341ZM23 7.3324V18.2083C23 18.4919 22.9384 18.7611 22.8279 19.0033L15.9344 12.2027L23 7.3324ZM0 7.39335L6.9483 12.1451L0.121555 18.8815C0.0429755 18.6721 0 18.4452 0 18.2083L0 7.39335ZM21.0833 2.875C22.1419 2.875 23 3.73312 23 4.79167V5.46595L11.4981 13.3948L0 5.5315L0 4.79167C0 3.73312 0.858121 2.875 1.91667 2.875H21.0833Z" fill="white"/>
</svg>