<svg width="388" height="308" viewBox="0 0 388 308" xmlns="http://www.w3.org/2000/svg" xmlns:xlink="http://www.w3.org/1999/xlink"><svg version="1.1" id="Schueco_icons_Cokol_ili_stoika_v_pol" y="220" viewBox="-1 -1 44 44" xml:space="preserve" width="44" height="44" xmlns="http://www.w3.org/2000/svg"><style>.aast7,.aast8{fill:none;stroke:#000;stroke-width:1.9991;stroke-miterlimit:10}.aast8{stroke-width:.9995}</style><path class="aast8" d="M39 37l-5-5"/><path class="aast7" d="M37 4h4v11h-4zM39 0v4"/><path class="aast8" d="M8 21.9l11.1-11.1M22 12l1.9-1.9M16.2 17.8l4.9-4.9M14.1 11.9l7-7M40 41.5H0M3.8 41l3.6-3.6M7.8 41l3.6-3.6M-.2 41l3.6-3.6M11.8 41l3.6-3.6M15.8 41l3.6-3.6M19.8 41l3.6-3.6M23.8 41l3.6-3.6M27.8 41l3.6-3.6M31.8 41l3.6-3.6M35.8 41l3.6-3.6M0 29.5h30.5V.1"/><path class="aast7" d="M0 32h34V0"/><path class="aast7" d="M0 37h39V15"/></svg><svg version="1.1" id="Schueco_icons_Kol_vo_stvorok_do_6_shtyk" x="44" y="220" viewBox="-1 -1 44 44" xml:space="preserve" width="44" height="44" xmlns="http://www.w3.org/2000/svg"><style>.abst7,.abst8{fill:none;stroke:#000;stroke-width:1.9991;stroke-miterlimit:10}.abst8{stroke-width:.9995}</style><path class="abst7" d="M1 5h40v31H1z"/><path class="abst8" d="M38.5 27v-3"/><path class="abst7" d="M8 5.5v30.9M14 5.5v30.9M21 5.5v30.9M28 5.5v30.9M34 5.6v30.8"/></svg><svg version="1.1" id="Schueco_icons_Kol_vo_stvorok_do_6_shtyk_do_3_napravlyauschih" x="88" y="220" viewBox="-1 -1 44 44" xml:space="preserve" width="44" height="44" xmlns="http://www.w3.org/2000/svg"><style>.acst7,.acst8{fill:none;stroke:#000;stroke-width:1.9991;stroke-miterlimit:10}.acst8{stroke-width:.9995}</style><path class="acst7" d="M10.1 5v31.9M23.9 5v31.9M1 5.1h40V37H1z"/><path class="acst8" d="M38.5 26v-2.8M12.3 28.7L18 23M20 25l.9-.9M16.2 28.8l2.7-2.7M15 21.9l3.9-3.9"/><g><path class="acst8" d="M28.3 19.7L34 14M36 16l.9-.9M32.2 19.8l2.7-2.7M31 12.9L34.9 9"/></g></svg><svg version="1.1" id="Schueco_icons_Povishennaya_gidroizolyaciya" x="132" y="220" viewBox="-1 -1 44 44" xml:space="preserve" width="44" height="44" xmlns="http://www.w3.org/2000/svg"><style>.adst2,.adst7{fill:none;stroke:#000;stroke-miterlimit:10}.adst7{stroke-width:1.9991}</style><circle class="adst7" cx="21" cy="21" r="20"/><path class="adst7" d="M35.1 35.1L6.9 6.9M21 6.6S11 19.4 11 24.9s4.5 10 10 10 10-4.5 10-10c0-5.4-10-18.3-10-18.3z"/><path class="adst2" d="M16 29.2c1.2 1.4 3 2.3 5 2.3.6 0 1.3-.1 1.9-.3M14.7 24.1c-.1.4-.2.8-.2 1.1 0 .6.1 1.2.3 1.8"/></svg><svg version="1.1" id="Schueco_icons_Shirina_stvorki_ot_430_do1200" x="176" y="220" viewBox="-1 -1 44 44" xml:space="preserve" width="44" height="44" xmlns="http://www.w3.org/2000/svg"><style>.aest7,.aest8{fill:none;stroke:#000;stroke-width:1.9991;stroke-miterlimit:10}.aest8{stroke-width:.9995}</style><path class="aest7" d="M1 17h40v8H1z"/><path class="aest8" d="M4.4 18.1V21M8.5 18.1V21M12.5 18.1V21M16.5 18.1V21M20.5 18.1V21M24.5 18.1V21M28.5 18.1V21M32.5 18.1V21M36.5 18.1V21"/></svg><svg version="1.1" id="Schueco_icons_Sootvetstvie_standarty_passivnogo_doma" x="220" y="220" viewBox="-1 -1 44 44" xml:space="preserve" width="44" height="44" xmlns="http://www.w3.org/2000/svg"><style>.afst7,.afst8{fill:none;stroke:#000;stroke-width:1.9991;stroke-miterlimit:10}.afst8{stroke-width:.9995}</style><path class="afst7" d="M40.3 5.5C39.6 4 38.6 2.8 37.1 2c-1-.5-2.4-1-4.4-1-4.9 0-7.1 2.9-7.4 3.3-.2.3-.5.7-.7 1-.2.3-.4.7-.6 1l-.3.6c-.1.2-.2.4-.3.7-.1.3-.2.6-.4.8-.1.3-.3.6-.4.9-.1.3-.2.6-.3.8l-.3.9c-.2.4-.3.9-.5 1.3-.2.5-.3.9-.5 1.4-.1.4-.2.8-.4 1.2-.2.5-.3 1-.5 1.5-.1.4-.2.7-.3 1.1-.2.5-.3 1.1-.5 1.6-.1.4-.3.9-.4 1.3-.2.7-.4 1.3-.6 2-.1.5-.3 1-.4 1.5-.1.5-.3 1.1-.5 1.6-.1.4-.3.8-.4 1.2-1.8-.4-2.5-.7-3.3-1.8-1-.9-1.7-1.5-1.7-2.9v-6H6v5.2c0 .5.1 1 .2 1.6.4 1.5 1.4 2.6 2.6 3.5 2.2 1.6 4.6 2.3 7.2 2.5.3 0 .3 0 .2.3-.3.8-.6 1.6-.8 2.5-.4 1.2-.8 2.3-1.2 3.5-.1.2-.1.4-.2.6-.4 1.1-.7 2.1-1.1 3.2-.2.7-.4 1.3-.7 2-.1.2 0 .2.1.2h3.5c.1 0 .2 0 .3-.2.3-.9.6-1.7.9-2.6.9-2.5 1.7-5.1 2.6-7.6.2-.6.4-1.2.6-1.7.1-.1.2 0 .2 0 .8-.1 1.6-.2 2.3-.3 2.2-.4 4.4-1 6.4-2 .9-.4 1.9-.9 2.7-1.5 1.7-1.1 3.2-2.5 4.5-4 1.1-1.3 2-2.8 2.8-4.4.9-1.8 1.8-4.3 1.8-6.5.1-2.6-.2-3.9-.6-4.8zm-5.2 6.6c0 .1-.7 3.3-1.3 4.8-.2.7-.6 1.3-.9 1.9-.7 1.4-1.7 2.6-2.8 3.7-.6.6-1.3 1.2-2 1.7-1 .7-2.1 1.3-3.3 1.8-1.2.5-2.5.8-3.8.9 0 0 .2-.6.2-.8.5-1.5.9-3 1.3-4.4l.6-1.8.9-3c.4-1.2.8-2.3 1.2-3.5.4-.9.7-1.9 1.1-2.8.5-1.2 1.1-2.4 1.8-3.6.4-.7 1-1.4 1.6-2 .4-.4.8-.6 1.4-.7h.7c.6.1 1.1.4 1.6.7.6.5.9 1 1.2 1.6.2.4.3.9.4 1.3.3 1.4.3 2.8.1 4.2z"/><circle class="afst8" cx="14" cy="5" r="3.5"/><path class="afst8" d="M32.4 4.9L14.5 1.5M14.1 18l2.6 8.9M10.5 5.5l2.2 7.5"/></svg><svg version="1.1" id="Schueco_icons_Steklopaket_do_68_mm" x="300" viewBox="-1 -1 44 44" xml:space="preserve" width="44" height="44" xmlns="http://www.w3.org/2000/svg"><style>.agst7{stroke-width:1.9991}.agst15,.agst7,.agst8{fill:none;stroke:#000;stroke-miterlimit:10}.agst8{stroke-width:.9995}.agst15{stroke-dasharray:3,2}</style><path class="agst7" d="M22.9 15.8L23 0M35 0v15.8M41 42V15"/><path class="agst8" d="M36 18.5H22"/><path class="agst7" d="M10 42V30l-9 .1v-14h10V22h26.9"/><path class="agst15" d="M14.5 18.5V0M18.5 18.5h-4"/></svg><svg version="1.1" id="Schueco_icons_Visota_do_3_m" x="300" y="44" viewBox="-1 -1 44 44" xml:space="preserve" width="44" height="44" xmlns="http://www.w3.org/2000/svg"><style>.ahst7,.ahst8{fill:none;stroke:#000;stroke-width:1.9991;stroke-miterlimit:10}.ahst8{stroke-width:.9995}</style><path class="ahst7" d="M0 41h11V1h21v40h10"/><path class="ahst8" d="M.1 38.4h10.8M31.1 38.4h10.8M18.2 38.5H25"/><path class="ahst7" d="M25 11.5c0 2-1.5 3.5-3.4 3.5s-3.4-1.6-3.4-3.5c0-2 1.5-3.5 3.4-3.5 1.8 0 3.4 1.6 3.4 3.5z"/><path class="ahst7" d="M28 28.8v-8.4c0-3-2.5-5.5-5.5-5.5h-1.9c-3.1 0-5.5 2.4-5.5 5.5v8.5"/><path class="ahst7" d="M18 27.3V41h7V27.3"/><path class="ahst8" d="M21.5 27.2v13.6M17.7 27.5h7.8V24M17.5 27.4V20M25.5 22v-2"/></svg><svg version="1.1" id="Schueco_icons_Visota_stvorki_ot_450_do_2500" x="300" y="88" viewBox="-1 -1 44 44" xml:space="preserve" width="44" height="44" xmlns="http://www.w3.org/2000/svg"><style>.aist7,.aist8{fill:none;stroke:#000;stroke-width:1.9991;stroke-miterlimit:10}.aist8{stroke-width:.9995}</style><path transform="rotate(90 21 20.984)" class="aist7" d="M1 17h40v8H1z"/><path class="aist8" d="M23.9 4.5H21M23.9 8.5H21M23.9 12.5H21M23.9 16.5H21M23.9 20.5H21M23.9 24.5H21M23.9 28.5H21M23.9 32.5H21M23.9 36.5H21"/></svg><svg version="1.1" id="Schueco_icons_Vzlomoystoichivost_do_WK2" x="300" y="132" viewBox="-1 -1 44 44" xml:space="preserve" width="44" height="44" xmlns="http://www.w3.org/2000/svg"><style>.ajst2,.ajst7,.ajst8{fill:none;stroke:#000;stroke-miterlimit:10}.ajst7,.ajst8{stroke-width:1.9991}.ajst8{stroke-width:.9995}</style><path class="ajst2" d="M33.7 19.5H29"/><path class="ajst7" d="M9 19S8.8 9 21 9s12.2 10 12.2 10"/><path class="ajst2" d="M23 19.5H8.3M25 19.5h2"/><path class="ajst8" d="M22.3 22.3v1.3"/><path class="ajst7" d="M1 21C1 10 10 1 21.1 1s20.1 9 20.1 20-9 20-20.1 20S1 32 1 21M35.2 35.2L6.9 6.9"/><path class="ajst7" d="M11 27h20v5l-4.1 1.9-5.9-2.7-6 2.7-4.1-1.7zM33.2 19.2c1.1.5 1.8 1.6 1.8 2.7V23H7v-1c0-1.2.7-2.3 1.8-2.7"/><path class="ajst2" d="M13.6 29.5l.6 1.5 3.4-1.5zM28.5 29.5l-.7 1.3-3.3-1.3z"/></svg><svg version="1.1" id="Schueco_icons_elementi_razmerom_do" x="300" y="176" viewBox="-1 -1 44 44" xml:space="preserve" width="44" height="44" xmlns="http://www.w3.org/2000/svg"><style>.akst0{stroke-width:2}.akst0,.akst1{fill:none;stroke:#000;stroke-miterlimit:10}</style><path class="akst0" d="M34 8h-8l2.7 2.5-18.2 18.2L8 26v8h8l-2.7-2.5 18.2-18.2L34 16zM9 1H1v8h3V4h5zM33 1h8v8h-3V4h-5zM33 41h8v-8h-3v5h-5zM9 41H1v-8h3v5h5z"/><path class="akst1" d="M9.5 4.5h23M10 37.5h23M4.5 33V10M37.5 14v-2M37.5 32.5V16.1"/></svg><svg version="1.1" id="Schueco_icons_k_zvykoizolyacii" x="300" y="220" viewBox="-1 -1 44 44" xml:space="preserve" width="44" height="44" xmlns="http://www.w3.org/2000/svg"><style>.alst0{stroke-width:2}.alst0,.alst1{fill:none;stroke:#000;stroke-miterlimit:10}</style><path class="alst0" d="M28.3 15L41 27.7M41 15L28.3 27.7M1 24V9.9C1 5 5 1 9.9 1h1.2l1.9.6c6.5 2 11 8.1 11 14.9V19l-.4 1.9C22 29.8 16.2 37.2 8 41H1V31"/><path class="alst1" d="M19.5 16v.9c0 6.6-3.2 12.9-8.5 16.8-1.6 1.1-3.5 1.8-5.4 1.8V24"/><path class="alst1" d="M19.5 16.4V16c0-4.9-3.2-9.2-7.8-10.6H11c-3 0-5.4 2.4-5.4 5.4v5.1l.9.5c4.9 2.8 5.6 9.6 1.3 13.3l-1.9 1.6M5.5 22v-2"/></svg><svg version="1.1" id="Schueco_icons_montazhnaya_glybina_mm" y="264" viewBox="-1 -1 44 44" xml:space="preserve" width="44" height="44" xmlns="http://www.w3.org/2000/svg"><style>.amst0{stroke-width:2}.amst0,.amst1,.amst3{fill:none;stroke:#000;stroke-miterlimit:10}.amst3{stroke-dasharray:3}</style><path class="amst0" d="M24 8V0M29 0v8M34 0v8M38 6v26"/><path class="amst1" d="M20.5 8v3.5H35"/><path class="amst0" d="M19 32v-9h-7V7h8v1"/><path class="amst1" d="M23 9.5h12"/><path class="amst3" d="M11.5 23.5V32M11.5 6.5h-8v17h8"/><path class="amst0" d="M4 36h34v5H4z"/><path class="amst1" d="M7.5 37v2M11.5 37v2M15.5 37v2M19.5 37v2M23.5 37v2M27.5 37v2M31.5 37v2M35.5 37v2"/></svg><svg version="1.1" id="Schueco_icons_potreblenie" x="44" y="264" viewBox="-1 -1 44 44" xml:space="preserve" width="44" height="44" xmlns="http://www.w3.org/2000/svg"><style>.anst0{stroke-width:2}.anst0,.anst1{fill:none;stroke:#000;stroke-miterlimit:10}</style><path class="anst0" d="M23 13h12c1.1 0 2 .9 2 2v3M15.2 29H3c-1.1 0-2-.9-2-2V15c0-1.1.9-2 2-2h16M37 24v3c0 1.1-.9 2-2 2H18"/><path class="anst1" d="M36.5 18v6"/><path class="anst0" d="M38 17h1c1.1 0 2 .9 2 2v4c0 1.1-.9 2-2 2h-1M26.9 18h-5.2L24 7 12.5 21H16"/><path class="anst0" d="M13.1 21h5.2l-3.8 12.5 13-15.5H24"/><path class="anst1" d="M12.5 23v3.5h-9v-11h9V18"/></svg><svg version="1.1" id="Schueco_icons_propysknaya_sposobnost" x="88" y="264" viewBox="-1 -1 44 44" xml:space="preserve" width="44" height="44" xmlns="http://www.w3.org/2000/svg"><style>.aost0{stroke-width:2}.aost0,.aost1{fill:none;stroke:#000;stroke-miterlimit:10}</style><path class="aost0" d="M0 19h7v5H0"/><path class="aost1" d="M3.4 19v5"/><path class="aost0" d="M42 24h-7v-5h7"/><path class="aost1" d="M38.6 21.1V19M38.6 24v-2.9M22.6 35V7.5H25L21 1l-4 6.5h2.4v34h3.2V41M22.6 38.9V37"/><path class="aost0" d="M12 9l-4 6h2v11c0 3.3-2.7 6-6 6v4c5.5 0 10-4.5 10-10V15h2l-4-6zM30 9l4 6h-2v11c0 3.3 2.7 6 6 6v4c-5.5 0-10-4.5-10-10V15h-2l4-6z"/></svg><svg version="1.1" id="Schueco_icons_razmeri_stvorki" x="132" y="264" viewBox="-1 -1 44 44" xml:space="preserve" width="44" height="44" xmlns="http://www.w3.org/2000/svg"><style>.apst0{stroke-width:2}.apst0,.apst1{fill:none;stroke:#000;stroke-miterlimit:10}</style><path class="apst0" d="M38 1L5 41h33z"/><path class="apst1" d="M32.5 29V18.8c0-.3-.4-.4-.5-.2L18.5 35c-.2.2 0 .5.2.5h13.8v-.4M32.5 32.8V31M10.8 34.8l2 2M14.5 30.5l2 2"/><g><path class="apst1" d="M18.1 26.1l2 2M21.8 21.8l2 2"/></g><g><path class="apst1" d="M25.5 17.5l2 2M28.9 12.9l2 2"/></g><g><path class="apst1" d="M32.6 8.6l2 2"/></g></svg><svg version="1.1" id="Schueco_icons_shirina_otkryvaniya" x="176" y="264" viewBox="-1 -1 44 44" xml:space="preserve" width="44" height="44" xmlns="http://www.w3.org/2000/svg"><style>.aqst0{stroke-width:2}.aqst0,.aqst1{fill:none;stroke:#000;stroke-miterlimit:10}</style><path class="aqst0" d="M34 7.1v-6h8M37 6.1h-3M42 6.1h-5"/><path class="aqst1" d="M38.5 6.1v-5"/><path class="aqst0" d="M32 36l-6-4v2H16v-2l-6 4 6 4v-2h10v2zM38.1 6.5L30 26l-3.4-1.5 7.7-18.1M3.6 6.5L11.7 26l3.4-1.5L7.4 6.4"/><path class="aqst0" d="M8 8.1v-7H0M5 6.1h3M0 6.1h5"/><path class="aqst1" d="M3.4 6.1v-5M8.5 30.1V42M33.5 30.1V42"/></svg><svg version="1.1" id="Schueco_icons_teploizolyaciya" x="220" y="264" viewBox="-1 -1 44 44" xml:space="preserve" width="44" height="44" xmlns="http://www.w3.org/2000/svg"><style>.arst0{stroke-width:2}.arst0,.arst1{fill:none;stroke:#000;stroke-miterlimit:10}</style><path class="arst0" d="M25 26.1V5c0-2.2-1.8-4-4-4s-4 1.8-4 4v21.1c-2.7 1.6-4.4 4.7-3.9 8.2.5 3.5 3.5 6.3 7 6.7 4.8.5 8.9-3.2 8.9-7.9 0-3.1-1.6-5.6-4-7z"/><path class="arst1" d="M22.5 19v-2M23 14.5h-3.5v14.3c-1.7.6-3 2.3-3 4.2 0 2.5 2 4.5 4.5 4.5s4.5-2 4.5-4.5c0-2-1.3-3.6-3-4.2V21"/><path class="arst0" d="M8 5h5M8 10h5M8 15h5M8 20h5M8 25h5"/></svg><svg version="1.1" id="Schueco_icons_vidimaya_shirina_mm" x="264" y="264" viewBox="-1 -1 44 44" xml:space="preserve" width="44" height="44" xmlns="http://www.w3.org/2000/svg"><style>.asst0{stroke-width:2}.asst0,.asst1,.asst2{fill:none;stroke:#000;stroke-miterlimit:10}.asst2{stroke-dasharray:5}</style><path class="asst0" d="M5.8 17.1C7.8 10.7 13.9 6 21 6s13 4.6 15.2 10.9"/><path class="asst0" d="M6.4 6.9C10.2 3.2 15.4 1 21 1c5.7 0 10.9 2.3 14.6 5.9"/><circle class="asst0" cx="21" cy="13" r="7"/><path class="asst1" d="M18.7 12c.3-.6.7-1.1 1.3-1.3M23.3 12c.1.3.2.6.2 1 0 1.4-1.1 2.5-2.5 2.5s-2.5-1.1-2.5-2.5c0-.3.1-.7.2-1M20 10.7c.3-.1.6-.2 1-.2.3 0 .7.1 1 .2"/><path class="asst2" d="M20.5 15.5l-20 27M21.5 15.5l20 27"/></svg><svg version="1.1" id="Schueco_icons_ydobnaya_visota_proema" x="344" viewBox="-1 -1 44 44" xml:space="preserve" width="44" height="44" xmlns="http://www.w3.org/2000/svg"><style>.atst0{stroke-width:2}.atst0,.atst1{fill:none;stroke:#000;stroke-miterlimit:10}</style><path class="atst0" d="M0 41h11V1h21v40h10"/><path class="atst1" d="M0 38.5h11M31.5 38.5h10.4M18 38.5h7"/><circle class="atst0" cx="21.5" cy="11.5" r="3.5"/><path class="atst0" d="M28 29v-8.5c0-3.1-2.5-5.5-5.5-5.5h-1.9c-3.1 0-5.5 2.5-5.5 5.5V29M18 29v12h7V29"/><path class="atst1" d="M21.5 29v13M25.5 22v-1.9M17 28.5h8.5V24M17.5 28.5v-8.4"/></svg><svg version="1.1" id="Schueco_icons_ygol_otkrivaniya" x="344" y="44" viewBox="-1 -1 44 44" xml:space="preserve" width="44" height="44" xmlns="http://www.w3.org/2000/svg"><style>.aust7{stroke-width:1.9991}.aust16,.aust7,.aust8{fill:none;stroke:#000;stroke-miterlimit:10}.aust8{stroke-width:.9995}.aust16{stroke-dasharray:4,3}</style><path class="aust7" d="M12.3 38.8l23.4-9.6-1.7-4.9L12 34"/><path class="aust8" d="M12.4 39.5H5.5"/><path class="aust7" d="M6 42v-8h6v8"/><path class="aust8" d="M5.4 2.5h7"/><path class="aust7" d="M12 0v8H6V0"/><path class="aust16" d="M12.5 8.5c10 0 18.5 6.7 21.1 15.9"/></svg><svg version="1.1" id="Schueco_icons_yroven_shyma" x="344" y="88" viewBox="-1 -1 44 44" xml:space="preserve" width="44" height="44" xmlns="http://www.w3.org/2000/svg"><style>.avst0{stroke-width:2}.avst0,.avst1{fill:none;stroke:#000;stroke-miterlimit:10}</style><path class="avst0" d="M9 28H1V15h8M27 38h-4L9 28v-1M9 16v-1L23 4h4"/><path class="avst1" d="M9.5 22v6M9.5 18v2"/><path class="avst0" d="M27 3v36"/><path class="avst1" d="M30.1 14c3.5.4 6.3 3.4 6.3 7s-2.8 6.6-6.3 7"/><path class="avst1" d="M30.1 7.2c6.5 1.2 11.5 6.9 11.5 13.8s-4.9 12.6-11.5 13.8M23.4 4v34"/></svg><svg width="47" height="27" viewBox="-1 -1 47 27" id="arrow" x="120" y="152" xmlns="http://www.w3.org/2000/svg"><path d="M1 1l21.5 22L44 1" stroke="#FFF" stroke-width="2" fill="none" fill-rule="evenodd"/></svg><svg width="17" height="17" viewBox="-1 -1 17 17" id="cross-15x15-black" x="370" y="282" xmlns="http://www.w3.org/2000/svg"><path fill-rule="evenodd" d="M7.5 6.096L1.695.29A.993.993 0 00.291 1.695L6.096 7.5.29 13.305a.993.993 0 101.404 1.404L7.5 8.904l5.805 5.805a.993.993 0 001.404-1.404L8.904 7.5l5.805-5.805A.993.993 0 1013.305.291L7.5 6.096z"/></svg><svg width="19" height="19" style="background:#000" viewBox="-1 -1 19 19" id="cross-15x15_white" x="259" y="69" xmlns="http://www.w3.org/2000/svg"><path fill="#FFF" fill-rule="evenodd" d="M8.5 7.1L1.69.29a.99.99 0 10-1.4 1.4L7.1 8.5.29 15.31a.99.99 0 101.4 1.4L8.5 9.9l6.81 6.81a.99.99 0 101.4-1.4L9.9 8.5l6.81-6.81a.99.99 0 00-1.4-1.4L8.5 7.1z"/></svg><svg width="26" height="26" viewBox="-1 -1 26 26" id="fb" x="344" y="256" xmlns="http://www.w3.org/2000/svg"><g fill="none" fill-rule="evenodd"><circle fill="#000" cx="12" cy="12" r="12"/><path d="M14.2 24v-8.653h2.96l.442-3.388H14.2V9.802c0-.979.277-1.647 1.7-1.647h1.803V5.134A24.782 24.782 0 0015.061 5c-2.618 0-4.415 1.576-4.415 4.466v2.487H7.703v3.388h2.949V24H14.2z" fill="#FFF" fill-rule="nonzero"/></g></svg><svg width="12" height="20" style="background:#000" viewBox="-1 -1 12 20" id="i-arrow-10x18-white-right" x="373" y="132" xmlns="http://www.w3.org/2000/svg"><path fill="#FFF" fill-rule="evenodd" d="M9.774 8.89a.998.998 0 00-.287-.819L1.71.293A1 1 0 10.295 1.707L7.477 8.89.295 16.071a1 1 0 001.414 1.414l7.778-7.778a.998.998 0 00.287-.818z"/></svg><svg width="18" height="10" style="background:#000" viewBox="-1 -1 18 10" id="i-arrow-16x8-white-down" x="370" y="256" xmlns="http://www.w3.org/2000/svg"><path fill="#FFF" fill-rule="evenodd" d="M7.997 5.85L2.501.353a.883.883 0 10-1.249 1.25L7.3 7.65c.195.195.46.28.715.254a.882.882 0 00.687-.257L14.747 1.6a.884.884 0 00-1.25-1.25l-5.5 5.499z"/></svg><svg width="20" height="12" style="background:#000" viewBox="-1 -1 20 12" id="i-arrow-18x10-black-down" x="259" y="50" xmlns="http://www.w3.org/2000/svg"><path fill-rule="evenodd" d="M9 9.947a1.03 1.03 0 01-.857-.295L.3 1.808A1.032 1.032 0 111.76.348L9 7.588l7.24-7.24a1.032 1.032 0 111.46 1.46L9.858 9.652A1.03 1.03 0 019 9.947z"/></svg><svg width="20" height="12" style="background:#000" viewBox="-1 -1 20 12" id="i-arrow-18x10-white-down" x="279" y="50" xmlns="http://www.w3.org/2000/svg"><path fill="#FFF" fill-rule="evenodd" d="M9 9.947a1.03 1.03 0 01-.857-.295L.3 1.808A1.032 1.032 0 111.76.348L9 7.588l7.24-7.24a1.032 1.032 0 111.46 1.46L9.858 9.652A1.03 1.03 0 019 9.947z"/></svg><svg width="52" height="44" viewBox="-1 -1 52 44" id="i-coefficient-50x42" x="68" y="152" xmlns="http://www.w3.org/2000/svg"><g fill="none" fill-rule="evenodd"><path fill="#000" d="M49.967 9.607a.75.75 0 00-.282-.666L45.13 5.357a.75.75 0 10-.928 1.179l3.913 3.08-3.911 3.077a.75.75 0 00.927 1.18l4.554-3.585a.75.75 0 00.281-.681z"/><path stroke="#000" stroke-width="2.5" d="M24.59 11.667c-3.552-2.5-7.24-2.361-11.065.416C9.699 14.861 5.328 14.496.41 10.987m24.18 9.846c-3.552-2.5-7.24-2.36-11.065.417C9.699 24.028 5.328 23.662.41 20.154M24.59 30c-3.552-2.5-7.24-2.361-11.065.417C9.699 33.194 5.328 32.829.41 29.32"/><path stroke="#000" stroke-width="1.5" d="M48.36 9.583c-3.005-.555-6.42.556-10.245 3.334C34.29 15.694 29.918 15.329 25 11.82" stroke-dasharray="4.5 2.8"/><path fill="#000" d="M49.967 19.607a.75.75 0 00-.282-.666l-4.554-3.584a.75.75 0 10-.928 1.179l3.913 3.08-3.911 3.077a.75.75 0 00.927 1.18l4.554-3.585a.75.75 0 00.281-.681z"/><path stroke="#000" stroke-width="1.5" d="M48.36 19.583c-3.005-.555-6.42.556-10.245 3.334C34.29 25.694 29.918 25.329 25 21.82" stroke-dasharray="4.5 2.8"/><path fill="#000" d="M49.967 29.607a.75.75 0 00-.282-.666l-4.554-3.584a.75.75 0 10-.928 1.179l3.913 3.08-3.911 3.077a.75.75 0 00.927 1.18l4.554-3.585a.75.75 0 00.281-.681z"/><path stroke="#000" stroke-width="1.5" d="M48.36 29.583c-3.005-.555-6.42.556-10.245 3.334C34.29 35.694 29.918 35.329 25 31.82" stroke-dasharray="4.5 2.8"/><rect width="2.8" height="41.667" x="23" fill="#000" rx="1.4"/></g></svg><svg width="22" height="22" viewBox="-1 -1 22 22" id="i-facebook-20x20-black" x="254" y="126" xmlns="http://www.w3.org/2000/svg"><path d="M15.27 3.283h-1.862c-1.46 0-1.742.694-1.742 1.712V7.24h3.481l-.001 3.515h-3.48v9.021h-3.63v-9.021H5V7.24h3.035V4.647C8.035 1.64 9.874 0 12.557 0l2.713.004v3.279z"/></svg><svg width="22" height="22" style="background:#000" viewBox="-1 -1 22 22" id="i-facebook-20x20-white" x="276" y="126" xmlns="http://www.w3.org/2000/svg"><path fill="#FFF" d="M15.27 3.283h-1.862c-1.46 0-1.742.694-1.742 1.712V7.24h3.481l-.001 3.515h-3.48v9.021h-3.63v-9.021H5V7.24h3.035V4.647C8.035 1.64 9.874 0 12.557 0l2.713.004v3.279z"/></svg><svg width="54" height="38" viewBox="-1 -1 54 38" id="i-glass_thickness-50x36" x="228" y="88" xmlns="http://www.w3.org/2000/svg"><g fill="none" fill-rule="evenodd"><rect width="49.192" height="32.577" x="1.25" y="1.25" stroke="#000" stroke-width="2.5" rx="2"/><rect width="40" height="23.2" x="6" y="6" stroke="#000" stroke-width="2" rx="1"/><path fill="#000" d="M25.4 6h1.9v24h-1.9z"/><g fill="#000" transform="translate(42 8.4)"><rect width="1.5" height="10.5" rx=".75"/><rect width="1.5" height="2.3" y="12" rx=".75"/></g></g></svg><svg width="22" height="22" viewBox="-1 -1 22 22" id="i-instagram-20x20-black" x="167" y="152" xmlns="http://www.w3.org/2000/svg"><path d="M14.596 0H5.404A5.41 5.41 0 000 5.404v9.192A5.41 5.41 0 005.404 20h9.192A5.41 5.41 0 0020 14.596V5.404A5.41 5.41 0 0014.596 0zm3.788 14.596c0 2.089-1.7 3.788-3.788 3.788H5.404a3.792 3.792 0 01-3.788-3.788V5.404c0-2.089 1.7-3.788 3.788-3.788h9.192c2.089 0 3.788 1.7 3.788 3.788v9.192z"/><path d="M14.735 9.461a4.61 4.61 0 00-1.31-2.601 4.638 4.638 0 00-3.963-1.31 4.611 4.611 0 00-3.047 1.827 4.612 4.612 0 00-.864 3.446 4.612 4.612 0 001.827 3.048 4.607 4.607 0 003.446.864 4.611 4.611 0 003.047-1.827 4.612 4.612 0 00.864-3.447zm-4.157 3.62a2.95 2.95 0 01-2.204-.553 2.95 2.95 0 01-1.168-1.95 2.95 2.95 0 01.552-2.205 2.95 2.95 0 012.385-1.2 2.953 2.953 0 012.937 2.534 2.973 2.973 0 01-2.502 3.373zm4.927-9.3A.72.72 0 0015 3.57a.72.72 0 00-.505.21.719.719 0 00-.21.505A.72.72 0 0015 5a.72.72 0 00.506-.21.72.72 0 00.21-.504.72.72 0 00-.21-.505z"/></svg><svg width="22" height="22" style="background:#000" viewBox="-1 -1 22 22" id="i-instagram-20x20-white" x="189" y="152" xmlns="http://www.w3.org/2000/svg"><g fill="#FFF"><path d="M14.596 0H5.404A5.41 5.41 0 000 5.404v9.192A5.41 5.41 0 005.404 20h9.192A5.41 5.41 0 0020 14.596V5.404A5.41 5.41 0 0014.596 0zm3.788 14.596c0 2.089-1.7 3.788-3.788 3.788H5.404a3.792 3.792 0 01-3.788-3.788V5.404c0-2.089 1.7-3.788 3.788-3.788h9.192c2.089 0 3.788 1.7 3.788 3.788v9.192z"/><path d="M14.735 9.461a4.61 4.61 0 00-1.31-2.601 4.638 4.638 0 00-3.963-1.31 4.611 4.611 0 00-3.047 1.827 4.612 4.612 0 00-.864 3.446 4.612 4.612 0 001.827 3.048 4.607 4.607 0 003.446.864 4.611 4.611 0 003.047-1.827 4.612 4.612 0 00.864-3.447zm-4.157 3.62a2.95 2.95 0 01-2.204-.553 2.95 2.95 0 01-1.168-1.95 2.95 2.95 0 01.552-2.205 2.95 2.95 0 012.385-1.2 2.953 2.953 0 012.937 2.534 2.973 2.973 0 01-2.502 3.373zm4.927-9.3A.72.72 0 0015 3.57a.72.72 0 00-.505.21.719.719 0 00-.21.505A.72.72 0 0015 5a.72.72 0 00.506-.21.72.72 0 00.21-.504.72.72 0 00-.21-.505z"/></g></svg><svg width="19" height="19" viewBox="-1 -1 19 19" id="i-phone-17x17-black" x="278" y="69" xmlns="http://www.w3.org/2000/svg"><defs><path id="bka" d="M16.992 13.416a.823.823 0 01-.252.72l-2.394 2.378c-.108.12-.249.222-.423.306a1.747 1.747 0 01-.512.162l-.108.009c-.06.006-.138.009-.234.009-.228 0-.597-.039-1.107-.117-.51-.078-1.134-.27-1.872-.576-.738-.306-1.575-.766-2.51-1.378-.936-.612-1.932-1.453-2.988-2.521-.84-.829-1.536-1.62-2.087-2.377a16.938 16.938 0 01-1.332-2.098 11.303 11.303 0 01-.756-1.747 9.273 9.273 0 01-.342-1.35 4.463 4.463 0 01-.072-.892c.012-.216.018-.336.018-.36.024-.168.078-.34.162-.514a1.35 1.35 0 01.306-.423L2.882.252A.792.792 0 013.458 0c.156 0 .294.045.414.135.12.09.222.201.306.333l1.926 3.656a.877.877 0 01.09.63c-.048.228-.15.42-.306.576l-.882.883a.3.3 0 00-.063.117.445.445 0 00-.027.135c.048.252.156.54.324.864.144.289.366.64.666 1.054.3.414.726.891 1.278 1.432.54.552 1.02.981 1.44 1.287.42.306.77.531 1.052.676.282.144.498.23.648.26l.225.046a.429.429 0 00.117-.027.3.3 0 00.117-.063l1.026-1.045c.216-.192.468-.288.756-.288.204 0 .366.036.486.108h.018l3.473 2.053c.252.156.402.354.45.594z"/></defs><g fill="none"><use fill="#000" fill-rule="evenodd" xlink:href="#bka"/><path stroke="#000" d="M16.498 13.499c-.023-.09-.086-.17-.21-.247l-3.356-1.983h-.02l-.119-.071a.5.5 0 00-.228-.037.59.59 0 00-.4.138l-1.028 1.048a.77.77 0 01-.313.184.867.867 0 01-.373.043l-.225-.045c-.205-.041-.458-.143-.777-.306a8.764 8.764 0 01-1.12-.717c-.445-.324-.945-.771-1.495-1.334-.57-.559-1.015-1.056-1.333-1.496a8.386 8.386 0 01-.705-1.117 3.567 3.567 0 01-.38-1.094c0-.097.02-.192.053-.293a.77.77 0 01.183-.313l.882-.882a.624.624 0 00.17-.326.389.389 0 00-.042-.294L3.756.737a.752.752 0 00-.184-.202A.173.173 0 003.458.5c-.08 0-.145.029-.222.106L.824 3.019a.858.858 0 00-.19.269 1.8 1.8 0 00-.113.296c0 .038-.006.151-.019.388-.01.174.012.439.067.785a8.8 8.8 0 00.324 1.276c.158.493.4 1.05.723 1.668.324.619.754 1.298 1.292 2.035.535.733 1.214 1.505 2.04 2.32 1.032 1.045 2.002 1.863 2.905 2.455.912.596 1.723 1.04 2.429 1.334.703.292 1.29.472 1.755.544.487.074.835.111 1.032.111a2.004 2.004 0 00.271-.013c.115-.017.237-.055.366-.118a.895.895 0 00.288-.21l2.392-2.376c.09-.09.123-.173.112-.284z"/></g></svg><svg width="19" height="19" style="background:#000" viewBox="-1 -1 19 19" id="i-phone-17x17-white" x="255" y="152" xmlns="http://www.w3.org/2000/svg"><defs><path id="bla" d="M16.992 13.416a.823.823 0 01-.252.72l-2.394 2.378c-.108.12-.249.222-.423.306a1.747 1.747 0 01-.512.162l-.108.009c-.06.006-.138.009-.234.009-.228 0-.597-.039-1.107-.117-.51-.078-1.134-.27-1.872-.576-.738-.306-1.575-.766-2.51-1.378-.936-.612-1.932-1.453-2.988-2.521-.84-.829-1.536-1.62-2.087-2.377a16.938 16.938 0 01-1.332-2.098 11.303 11.303 0 01-.756-1.747 9.273 9.273 0 01-.342-1.35 4.463 4.463 0 01-.072-.892c.012-.216.018-.336.018-.36.024-.168.078-.34.162-.514a1.35 1.35 0 01.306-.423L2.882.252A.792.792 0 013.458 0c.156 0 .294.045.414.135.12.09.222.201.306.333l1.926 3.656a.877.877 0 01.09.63c-.048.228-.15.42-.306.576l-.882.883a.3.3 0 00-.063.117.445.445 0 00-.027.135c.048.252.156.54.324.864.144.289.366.64.666 1.054.3.414.726.891 1.278 1.432.54.552 1.02.981 1.44 1.287.42.306.77.531 1.052.676.282.144.498.23.648.26l.225.046a.429.429 0 00.117-.027.3.3 0 00.117-.063l1.026-1.045c.216-.192.468-.288.756-.288.204 0 .366.036.486.108h.018l3.473 2.053c.252.156.402.354.45.594z"/></defs><g fill="none"><use fill="#FFF" fill-rule="evenodd" xlink:href="#bla"/><path stroke="#FFF" d="M16.498 13.499c-.023-.09-.086-.17-.21-.247l-3.356-1.983h-.02l-.119-.071a.5.5 0 00-.228-.037.59.59 0 00-.4.138l-1.028 1.048a.77.77 0 01-.313.184.867.867 0 01-.373.043l-.225-.045c-.205-.041-.458-.143-.777-.306a8.764 8.764 0 01-1.12-.717c-.445-.324-.945-.771-1.495-1.334-.57-.559-1.015-1.056-1.333-1.496a8.386 8.386 0 01-.705-1.117 3.567 3.567 0 01-.38-1.094c0-.097.02-.192.053-.293a.77.77 0 01.183-.313l.882-.882a.624.624 0 00.17-.326.389.389 0 00-.042-.294L3.756.737a.752.752 0 00-.184-.202A.173.173 0 003.458.5c-.08 0-.145.029-.222.106L.824 3.019a.858.858 0 00-.19.269 1.8 1.8 0 00-.113.296c0 .038-.006.151-.019.388-.01.174.012.439.067.785a8.8 8.8 0 00.324 1.276c.158.493.4 1.05.723 1.668.324.619.754 1.298 1.292 2.035.535.733 1.214 1.505 2.04 2.32 1.032 1.045 2.002 1.863 2.905 2.455.912.596 1.723 1.04 2.429 1.334.703.292 1.29.472 1.755.544.487.074.835.111 1.032.111a2.004 2.004 0 00.271-.013c.115-.017.237-.055.366-.118a.895.895 0 00.288-.21l2.392-2.376c.09-.09.123-.173.112-.284z"/></g></svg><svg width="22" height="22" viewBox="-1 -1 22 22" id="i-twitter-20x20-black" x="211" y="152" xmlns="http://www.w3.org/2000/svg"><path d="M17.975 6.082c.007.156.01.311.01.468 0 5.628-4.36 11.45-11.658 11.45-2.231 0-4.403-.625-6.281-1.808a.096.096 0 01-.04-.115.1.1 0 01.105-.064c.315.037.637.055.957.055a8.099 8.099 0 004.769-1.527c-1.666-.138-3.098-1.245-3.613-2.825a.097.097 0 01.02-.094.101.101 0 01.093-.031c.462.086.931.091 1.384.02C2.003 11.085.795 9.504.795 7.705v-.053a.1.1 0 01.147-.083 4.03 4.03 0 001.453.461A4.056 4.056 0 01.828 4.834c0-.723.195-1.434.564-2.055a.099.099 0 01.078-.048.098.098 0 01.085.035 11.545 11.545 0 008.172 4.126 4.065 4.065 0 01-.08-.805C9.647 3.833 11.514 2 13.808 2a4.22 4.22 0 013 1.251 8.112 8.112 0 002.495-.946.101.101 0 01.113.008.097.097 0 01.032.106 4.084 4.084 0 01-1.463 2.02 8.11 8.11 0 001.875-.56.1.1 0 01.117.027.096.096 0 01.006.117 8.213 8.213 0 01-2.008 2.059z"/></svg><svg width="22" height="22" style="background:#000" viewBox="-1 -1 22 22" id="i-twitter-20x20-white" x="233" y="152" xmlns="http://www.w3.org/2000/svg"><path fill="#FFF" d="M17.975 6.082c.007.156.01.311.01.468 0 5.628-4.36 11.45-11.658 11.45-2.231 0-4.403-.625-6.281-1.808a.096.096 0 01-.04-.115.1.1 0 01.105-.064c.315.037.637.055.957.055a8.099 8.099 0 004.769-1.527c-1.666-.138-3.098-1.245-3.613-2.825a.097.097 0 01.02-.094.101.101 0 01.093-.031c.462.086.931.091 1.384.02C2.003 11.085.795 9.504.795 7.705v-.053a.1.1 0 01.147-.083 4.03 4.03 0 001.453.461A4.056 4.056 0 01.828 4.834c0-.723.195-1.434.564-2.055a.099.099 0 01.078-.048.098.098 0 01.085.035 11.545 11.545 0 008.172 4.126 4.065 4.065 0 01-.08-.805C9.647 3.833 11.514 2 13.808 2a4.22 4.22 0 013 1.251 8.112 8.112 0 002.495-.946.101.101 0 01.113.008.097.097 0 01.032.106 4.084 4.084 0 01-1.463 2.02 8.11 8.11 0 001.875-.56.1.1 0 01.117.027.096.096 0 01.006.117 8.213 8.213 0 01-2.008 2.059z"/></svg><svg width="29" height="40" viewBox="-1 -1 29 40" id="i-weight-27x38" x="344" y="132" xmlns="http://www.w3.org/2000/svg"><g stroke="#000" stroke-width=".6"><path d="M25.264 19.256V7.663c0-4.226-3.373-7.663-7.52-7.663H9.256C5.11 0 1.736 3.437 1.736 7.663v11.59A13.947 13.947 0 000 26.003c0 3.195 1.1 6.308 3.096 8.766a4.764 4.764 0 001.684 1.313A20.588 20.588 0 0013.5 38c3.04 0 5.974-.645 8.72-1.918.648-.3 1.23-.755 1.684-1.313A13.937 13.937 0 0027 26.002c0-2.398-.614-4.715-1.736-6.746zM9.255 1.16h8.49c3.518 0 6.38 2.917 6.38 6.503v9.854a13.632 13.632 0 00-2.976-2.852 13.467 13.467 0 00-1.487-.904 3.304 3.304 0 001.733-2.926V7.819c0-1.069-.44-2.1-1.206-2.831a.562.562 0 00-.804.027.588.588 0 00.027.82c.545.52.845 1.224.845 1.984v3.016c0 .69-.314 1.32-.86 1.73a2.01 2.01 0 01-1.838.313 13.275 13.275 0 00-4.059-.633c-1.37 0-2.716.21-4 .615-.636.2-1.3.087-1.833-.31a2.14 2.14 0 01-.866-1.714l-.028-2.991a2.726 2.726 0 01.772-1.938 2.623 2.623 0 011.894-.805h7.092c.315 0 .57-.26.57-.58 0-.32-.255-.58-.57-.58H9.44A3.743 3.743 0 006.737 5.09a3.888 3.888 0 00-1.102 2.765l.027 2.992a3.297 3.297 0 001.724 2.889c-.492.255-.972.54-1.434.859a13.644 13.644 0 00-3.077 2.921V7.663c0-3.586 2.862-6.503 6.38-6.503zm13.772 32.87a3.617 3.617 0 01-1.278.996A19.476 19.476 0 0113.5 36.84c-2.876 0-5.652-.61-8.249-1.814a3.617 3.617 0 01-1.278-.997 12.761 12.761 0 01-2.835-8.026c0-4.192 2.038-8.097 5.45-10.447a12.137 12.137 0 016.912-2.15c2.517 0 4.939.765 7.003 2.214 3.356 2.356 5.359 6.237 5.359 10.383 0 2.925-1.007 5.776-2.835 8.026z"/><path d="M23.982 23.295c-.632-2.517-2.104-4.717-4.145-6.196a.517.517 0 00-.743.144.58.58 0 00.137.78c1.831 1.327 3.152 3.301 3.719 5.559a.54.54 0 00.516.418.51.51 0 00.136-.019.565.565 0 00.38-.686zm-6.429-7.97c-.192-.096-.389-.188-.584-.273-.376-.163-.79.07-.926.523-.135.452.059.95.434 1.114.175.077.352.159.524.245.09.045.184.066.276.066.284 0 .553-.203.668-.538.152-.444-.023-.954-.392-1.137z"/></g></svg><svg width="136" height="25" viewBox="-1 -1 136 25" id="logo-desktop-black" x="164" xmlns="http://www.w3.org/2000/svg"><path fill-rule="evenodd" d="M19 18.348C19 21.578 17.218 23 13.857 23H.267l.844-3.096h12.654c1.102 0 1.683-.307 1.683-1.556v-.346c0-1.25-.58-1.557-1.683-1.557H5.143C1.782 16.445 0 15.024 0 11.793v-.141C0 8.422 1.782 7 5.143 7H18.3l-.843 3.095H5.236c-1.103 0-1.684.307-1.684 1.557v.141c0 1.251.58 1.556 1.683 1.556h8.622c3.361 0 5.143 1.422 5.143 4.653v.346zm21.145 1.556h-11.56c-1.148 0-1.983-.516-1.983-1.833V11.93c0-1.317.835-1.834 1.983-1.834H40.05L40.908 7H28.49C24.963 7 23 8.563 23 11.929v6.142C23 21.436 24.963 23 28.491 23H41l-.855-3.096zm19.327-3.678H47.528V23H44V7h3.528v6.186h11.944V7H63v16h-3.528v-6.774zm49.674 3.678h-11.56c-1.149 0-1.984-.516-1.984-1.833V11.93c0-1.317.835-1.834 1.983-1.834h11.466L109.908 7H97.492C93.964 7 92 8.563 92 11.929v6.142C92 21.436 93.964 23 97.492 23H110l-.854-3.096zM68 18.071V7h3.56v11.071c0 1.317.825 1.833 1.959 1.833h8.962c1.135 0 1.96-.516 1.96-1.833V7H88v11.071C88 21.436 86.06 23 82.573 23h-9.146C69.94 23 68 21.436 68 18.071zM128.057 20h-10.114c-1.124 0-1.943-.526-1.943-1.868v-6.263c0-1.342.819-1.869 1.943-1.869h10.114c1.124 0 1.943.527 1.943 1.869v6.263c0 1.342-.819 1.868-1.943 1.868zM134 18.071V11.93C134 8.563 131.99 7 128.378 7h-10.757C114.01 7 112 8.563 112 11.929v6.142c0 3.365 2.01 4.929 5.621 4.929h10.757c3.612 0 5.622-1.564 5.622-4.929zM75 0h5l-1.05 4h-2.9L75 0zm6 4h3.231L87 0h-4.573L81 4zM68 0h4.573L74 4h-3.231L68 0z"/></svg><svg width="136" height="25" style="background:#000" viewBox="-1 -1 136 25" id="logo-desktop-white" x="164" y="25" xmlns="http://www.w3.org/2000/svg"><path fill="#FFF" fill-rule="evenodd" d="M19 18.348C19 21.578 17.218 23 13.857 23H.267l.844-3.096h12.654c1.102 0 1.683-.307 1.683-1.556v-.346c0-1.25-.58-1.557-1.683-1.557H5.143C1.782 16.445 0 15.024 0 11.793v-.141C0 8.422 1.782 7 5.143 7H18.3l-.843 3.095H5.236c-1.103 0-1.684.307-1.684 1.557v.141c0 1.251.58 1.556 1.683 1.556h8.622c3.361 0 5.143 1.422 5.143 4.653v.346zm21.145 1.556h-11.56c-1.148 0-1.983-.516-1.983-1.833V11.93c0-1.317.835-1.834 1.983-1.834H40.05L40.908 7H28.49C24.963 7 23 8.563 23 11.929v6.142C23 21.436 24.963 23 28.491 23H41l-.855-3.096zm19.327-3.678H47.528V23H44V7h3.528v6.186h11.944V7H63v16h-3.528v-6.774zm49.674 3.678h-11.56c-1.149 0-1.984-.516-1.984-1.833V11.93c0-1.317.835-1.834 1.983-1.834h11.466L109.908 7H97.492C93.964 7 92 8.563 92 11.929v6.142C92 21.436 93.964 23 97.492 23H110l-.854-3.096zM68 18.071V7h3.56v11.071c0 1.317.825 1.833 1.959 1.833h8.962c1.135 0 1.96-.516 1.96-1.833V7H88v11.071C88 21.436 86.06 23 82.573 23h-9.146C69.94 23 68 21.436 68 18.071zM128.057 20h-10.114c-1.124 0-1.943-.526-1.943-1.868v-6.263c0-1.342.819-1.869 1.943-1.869h10.114c1.124 0 1.943.527 1.943 1.869v6.263c0 1.342-.819 1.868-1.943 1.868zM134 18.071V11.93C134 8.563 131.99 7 128.378 7h-10.757C114.01 7 112 8.563 112 11.929v6.142c0 3.365 2.01 4.929 5.621 4.929h10.757c3.612 0 5.622-1.564 5.622-4.929zM75 0h5l-1.05 4h-2.9L75 0zm6 4h3.231L87 0h-4.573L81 4zM68 0h4.573L74 4h-3.231L68 0z"/></svg><svg width="95" height="19" viewBox="-1 -1 95 19" id="logo-mobile-black" x="164" y="50" xmlns="http://www.w3.org/2000/svg"><path fill-rule="evenodd" d="M13 13.51C13 15.935 11.78 17 9.481 17H.183l.577-2.322h8.658c.754 0 1.151-.23 1.151-1.167v-.26c0-.937-.397-1.167-1.15-1.167h-5.9C1.22 12.084 0 11.018 0 8.594V8.49C0 6.066 1.22 5 3.52 5h9l-.576 2.322H3.582c-.754 0-1.151.23-1.151 1.167v.106c0 .938.397 1.167 1.151 1.167h5.9c2.299 0 3.518 1.067 3.518 3.49v.259zm14.43 1.168h-7.707c-.765 0-1.322-.387-1.322-1.374V8.696c0-.987.557-1.374 1.322-1.374h7.644L27.938 5h-8.277C17.309 5 16 6.173 16 8.696v4.608C16 15.827 17.309 17 19.661 17H28l-.57-2.322zm14.156-2.759h-8.172V17H31V5h2.414v4.64h8.172V5H44v12h-2.414v-5.08zm33.845 2.759h-7.708c-.765 0-1.322-.387-1.322-1.374V8.696c0-.987.557-1.374 1.322-1.374h7.644L75.938 5h-8.277C65.31 5 64 6.173 64 8.696v4.608C64 15.827 65.31 17 67.661 17H76l-.57-2.322zM47 13.304V5h2.492v8.304c0 .987.577 1.374 1.371 1.374h6.274c.794 0 1.371-.387 1.371-1.374V5H61v8.304C61 15.827 59.643 17 57.201 17H50.8C48.36 17 47 15.827 47 13.304zM89.112 14.5h-7.224c-.803 0-1.388-.368-1.388-1.308V8.808c0-.94.585-1.308 1.388-1.308h7.224c.803 0 1.388.369 1.388 1.308v4.384c0 .94-.585 1.308-1.388 1.308zM93 13.304V8.696C93 6.173 91.63 5 89.167 5h-7.334C79.37 5 78 6.173 78 8.696v4.608C78 15.827 79.37 17 81.833 17h7.334C91.629 17 93 15.827 93 13.304zM52 0h3l-.63 3h-1.74L52 0zm4 3h2.154L60 0h-3.049L56 3zm-9-3h3.049L51 3h-2.154L47 0z"/></svg><svg width="95" height="19" style="background:#000" viewBox="-1 -1 95 19" id="logo-mobile-white" x="164" y="69" xmlns="http://www.w3.org/2000/svg"><path fill="#FFF" fill-rule="evenodd" d="M13 13.51C13 15.935 11.78 17 9.481 17H.183l.577-2.322h8.658c.754 0 1.151-.23 1.151-1.167v-.26c0-.937-.397-1.167-1.15-1.167h-5.9C1.22 12.084 0 11.018 0 8.594V8.49C0 6.066 1.22 5 3.52 5h9l-.576 2.322H3.582c-.754 0-1.151.23-1.151 1.167v.106c0 .938.397 1.167 1.151 1.167h5.9c2.299 0 3.518 1.067 3.518 3.49v.259zm14.43 1.168h-7.707c-.765 0-1.322-.387-1.322-1.374V8.696c0-.987.557-1.374 1.322-1.374h7.644L27.938 5h-8.277C17.309 5 16 6.173 16 8.696v4.608C16 15.827 17.309 17 19.661 17H28l-.57-2.322zm14.156-2.759h-8.172V17H31V5h2.414v4.64h8.172V5H44v12h-2.414v-5.08zm33.845 2.759h-7.708c-.765 0-1.322-.387-1.322-1.374V8.696c0-.987.557-1.374 1.322-1.374h7.644L75.938 5h-8.277C65.31 5 64 6.173 64 8.696v4.608C64 15.827 65.31 17 67.661 17H76l-.57-2.322zM47 13.304V5h2.492v8.304c0 .987.577 1.374 1.371 1.374h6.274c.794 0 1.371-.387 1.371-1.374V5H61v8.304C61 15.827 59.643 17 57.201 17H50.8C48.36 17 47 15.827 47 13.304zM89.112 14.5h-7.224c-.803 0-1.388-.368-1.388-1.308V8.808c0-.94.585-1.308 1.388-1.308h7.224c.803 0 1.388.369 1.388 1.308v4.384c0 .94-.585 1.308-1.388 1.308zM93 13.304V8.696C93 6.173 91.63 5 89.167 5h-7.334C79.37 5 78 6.173 78 8.696v4.608C78 15.827 79.37 17 81.833 17h7.334C91.629 17 93 15.827 93 13.304zM52 0h3l-.63 3h-1.74L52 0zm4 3h2.154L60 0h-3.049L56 3zm-9-3h3.049L51 3h-2.154L47 0z"/></svg><svg width="164" height="152" viewBox="-1 -1 164 152" id="phones-mobile" xmlns="http://www.w3.org/2000/svg"><g fill="none" fill-rule="evenodd"><path d="M141.994 83.058l.948.947H28.982l.996-.947v62.905l-.997-.97h113.961l-.948.97V83.058zm.955 62.788l-113.968.173V83.026H142.95v62.82zm6.044-43.552c0 .942.694 1.706 1.55 1.706.857 0 1.551-.764 1.551-1.706s-.694-1.706-1.55-1.706c-.857 0-1.55.764-1.55 1.706zM153.071 114c0 .725.265.984.927.99.662.006.927-.044.927-.99s-.537-.964-.927-.964c-.391 0-.927.239-.927.964zm-3.077-6.353c.553 0 1.001.452 1.001.997v10.712c0 .55-.444.997-1 .997a1.003 1.003 0 01-1.002-.997v-10.712c0-.55.444-.997 1.001-.997zm-128.796 12c3.126 0 5.66-2.528 5.66-5.647s-2.534-5.647-5.66-5.647c-3.126 0-5.66 2.528-5.66 5.647s2.534 5.647 5.66 5.647zm0-9.882A4.24 4.24 0 0125.443 114a4.24 4.24 0 01-4.245 4.235A4.24 4.24 0 0116.953 114a4.24 4.24 0 014.245-4.235zm2.122-29.799c-5.465 0-10.332 5.288-10.332 10.748v47.984c0 5.47 4.858 10.37 10.332 10.37h127.36c5.399 0 10.151-4.99 10.256-10.37V90.714c0-5.47-4.602-10.748-10.077-10.748H23.32zM162 90.714v47.984c0 6.242-5.077 11.302-11.32 11.302H23.32C17.068 150 12 144.952 12 138.698V90.714c0-6.242 5.077-11.58 11.32-11.58h127.54c6.252 0 11.14 5.326 11.14 11.58zm-19.811-12.008v.706l-5.66-.279v-.427c0-.39.304-.706.693-.706h4.273c.383 0 .694.327.694.706zm-12.736 0v.427l-11.32.279v-.706c0-.39.326-.706.707-.706h9.905c.39 0 .708.327.708.706zm-14.151 0v.706h-11.32v-.706c0-.39.326-.706.707-.706h9.905c.39 0 .708.327.708.706z" fill="#77B82B" fill-rule="nonzero"/><rect fill="#343434" fill-rule="nonzero" y="57" width="87" height="93" rx="15"/><path d="M17.058 20.006l.947-.948v113.96l-.947-.996h62.905l-.97.997V19.058l.97.948H17.058zm62.788-.955l.173 113.968H17.026V19.05h62.82zm-43.552-6.044c.942 0 1.706-.694 1.706-1.55 0-.857-.764-1.551-1.706-1.551s-1.706.694-1.706 1.55c0 .857.764 1.55 1.706 1.55zM48 8.929c.725 0 .984-.265.99-.927.006-.662-.044-.927-.99-.927s-.964.537-.964.927c0 .391.239.927.964.927zm-6.353 3.077c0-.553.452-1.001.997-1.001h10.712c.55 0 .997.444.997 1 0 .554-.452 1.002-.997 1.002H42.644a.997.997 0 01-.997-1.001zm12 128.796c0-3.126-2.528-5.66-5.647-5.66s-5.647 2.534-5.647 5.66c0 3.126 2.528 5.66 5.647 5.66s5.647-2.534 5.647-5.66zm-9.882 0A4.24 4.24 0 0148 136.557a4.24 4.24 0 014.235 4.245A4.24 4.24 0 0148 145.047a4.24 4.24 0 01-4.235-4.245zm-29.799-2.122c0 5.465 5.288 10.332 10.748 10.332h47.984c5.47 0 10.37-4.858 10.37-10.332V11.32c0-5.399-4.99-10.151-10.37-10.256H24.714c-5.47 0-10.748 4.602-10.748 10.077V138.68zM24.714 0h47.984C78.94 0 84 5.077 84 11.32v127.36c0 6.252-5.048 11.32-11.302 11.32H24.714c-6.242 0-11.58-5.077-11.58-11.32V11.14C13.133 4.889 18.46 0 24.713 0zM12.706 19.811h.706l-.279 5.66h-.427a.696.696 0 01-.706-.693v-4.273c0-.383.327-.694.706-.694zm0 12.736h.427l.279 11.32h-.706A.713.713 0 0112 43.16v-9.905c0-.39.327-.708.706-.708zm0 14.151h.706v11.32h-.706a.713.713 0 01-.706-.707v-9.905c0-.39.327-.708.706-.708z" fill="#FFF" fill-rule="nonzero"/><g stroke="#77B82B" stroke-linecap="round"><path d="M113.888 102C115.615 65.333 97.318 47 59 47"/><path fill="#77B82B" d="M69.8 44L59 47l10.8 3"/></g></g></svg><svg height="36" width="34" viewBox="-1 -1 34 36" id="share-icon" x="344" y="172" xmlns="http://www.w3.org/2000/svg"><path d="M26.256 11.333c3.16 0 5.744-2.55 5.744-5.666C32 2.55 29.415 0 26.256 0s-5.743 2.55-5.743 5.667c0 .566.082 1.093.246 1.619L9.887 13.074c-1.066-1.053-2.502-1.74-4.143-1.74C2.584 11.333 0 13.883 0 17s2.585 5.667 5.744 5.667a5.794 5.794 0 004.143-1.74l10.872 5.787a5.342 5.342 0 00-.246 1.62c0 3.116 2.584 5.666 5.743 5.666C29.416 34 32 31.45 32 28.333c0-3.116-2.585-5.666-5.744-5.666a5.688 5.688 0 00-4.8 2.59L10.872 19.59c.41-.769.656-1.659.656-2.59s-.246-1.821-.656-2.59l10.584-5.667a5.688 5.688 0 004.8 2.59zm0-9.714c2.257 0 4.103 1.821 4.103 4.048 0 2.226-1.846 4.047-4.103 4.047-2.256 0-4.102-1.821-4.102-4.047 0-2.227 1.846-4.048 4.102-4.048zM5.744 21.048c-2.257 0-4.103-1.822-4.103-4.048s1.846-4.048 4.103-4.048C8 12.952 9.846 14.774 9.846 17S8 21.048 5.744 21.048zm20.512 3.238c2.257 0 4.103 1.821 4.103 4.047 0 2.227-1.846 4.048-4.103 4.048-2.256 0-4.102-1.821-4.102-4.048 0-2.226 1.846-4.047 4.102-4.047z"/></svg><svg height="64" width="64" viewBox="-1 -1 64 64" id="success" x="164" y="88" xmlns="http://www.w3.org/2000/svg"><g fill="none"><circle cx="31" cy="31" r="30" stroke="#77b82b" stroke-width="2"/><g fill="#77b82b"><path d="M19.464 29.05l8.486 8.486-1.414 1.414-8.486-8.486z"/><path d="M25.961 38.425L42.225 22.16l1.414 1.414L27.375 39.84z"/></g></g></svg><svg width="26" height="26" viewBox="-1 -1 26 26" id="tw" x="344" y="282" xmlns="http://www.w3.org/2000/svg"><g fill="none" fill-rule="evenodd"><circle fill="#000" cx="12" cy="12" r="12"/><path d="M9.717 18c5.66 0 8.757-4.617 8.757-8.621 0-.131 0-.262-.01-.392A6.209 6.209 0 0020 7.42a6.218 6.218 0 01-1.768.477 3.05 3.05 0 001.353-1.676 6.226 6.226 0 01-1.954.735 3.116 3.116 0 00-3.697-.596 3.016 3.016 0 00-1.547 3.36 8.784 8.784 0 01-6.343-3.166 3.004 3.004 0 00.953 4.045 3.091 3.091 0 01-1.397-.38v.039c0 1.442 1.033 2.684 2.469 2.97a3.12 3.12 0 01-1.39.052 3.076 3.076 0 002.876 2.104A6.237 6.237 0 015 16.64a8.813 8.813 0 004.717 1.359" fill="#FFF" fill-rule="nonzero"/></g></svg><svg width="26" height="26" viewBox="-1 -1 26 26" id="vk" x="228" y="126" xmlns="http://www.w3.org/2000/svg"><g fill="none" fill-rule="evenodd"><circle fill="#000" cx="12" cy="12" r="12"/><path d="M19.654 8.268c.111-.37 0-.643-.529-.643h-1.75c-.445 0-.65.235-.761.495 0 0-.89 2.17-2.151 3.578-.408.408-.593.538-.816.538-.111 0-.272-.13-.272-.5V8.267c0-.445-.13-.643-.5-.643h-2.75c-.278 0-.445.207-.445.402 0 .422.63.52.695 1.706v2.577c0 .565-.102.667-.324.667-.594 0-2.037-2.178-2.893-4.672-.167-.484-.336-.68-.783-.68h-1.75c-.5 0-.6.235-.6.495 0 .463.593 2.762 2.762 5.803 1.447 2.076 3.484 3.202 5.338 3.202 1.112 0 1.25-.25 1.25-.68v-1.57c0-.5.105-.6.458-.6.26 0 .704.13 1.742 1.131 1.187 1.187 1.383 1.719 2.05 1.719h1.75c.5 0 .75-.25.606-.743-.158-.492-.725-1.205-1.476-2.051-.408-.482-1.02-1.001-1.205-1.26-.26-.335-.186-.483 0-.78 0 0 2.132-3.003 2.354-4.023z" fill="#FFF" fill-rule="nonzero"/></g></svg><svg width="68" height="68" viewBox="-1 -1 68 68" id="window_close_button" y="152" xmlns="http://www.w3.org/2000/svg"><g stroke="#FFF" stroke-width="2" fill="none" fill-rule="evenodd"><path d="M.885 1.361L64.563 65.04M64.563 1.361L.885 65.04"/></g></svg><svg width="33" height="24" viewBox="-1 -1 33 24" id="youtube_black" x="344" y="208" xmlns="http://www.w3.org/2000/svg"><g fill="#000" fill-rule="nonzero" stroke="#000" stroke-width=".4"><path d="M24.341.297H6.794C3.599.297 1 2.905 1 6.11v9.782c0 3.204 2.599 5.811 5.794 5.811H24.34c3.195 0 5.794-2.607 5.794-5.811V6.109c0-3.204-2.599-5.812-5.794-5.812zm4.605 15.594c0 2.55-2.066 4.623-4.605 4.623H6.794c-2.54 0-4.605-2.074-4.605-4.623V6.11c0-2.549 2.066-4.623 4.605-4.623H24.34c2.54 0 4.605 2.074 4.605 4.623v9.782z"/><path d="M20.836 10.785L12.598 5.96a.596.596 0 00-.895.513v9.65a.596.596 0 00.895.513l8.238-4.824a.595.595 0 000-1.027zm-7.944 4.3V7.51l6.467 3.788-6.467 3.787z"/></g></svg><svg width="33" height="24" viewBox="-1 -1 33 24" id="youtube_white" x="344" y="232" xmlns="http://www.w3.org/2000/svg"><g fill="#FFF" fill-rule="nonzero" stroke="#FFF" stroke-width=".4"><path d="M24.341.297H6.794C3.599.297 1 2.905 1 6.11v9.782c0 3.204 2.599 5.811 5.794 5.811H24.34c3.195 0 5.794-2.607 5.794-5.811V6.109c0-3.204-2.599-5.812-5.794-5.812zm4.605 15.594c0 2.55-2.066 4.623-4.605 4.623H6.794c-2.54 0-4.605-2.074-4.605-4.623V6.11c0-2.549 2.066-4.623 4.605-4.623H24.34c2.54 0 4.605 2.074 4.605 4.623v9.782z"/><path d="M20.836 10.785L12.598 5.96a.596.596 0 00-.895.513v9.65a.596.596 0 00.895.513l8.238-4.824a.595.595 0 000-1.027zm-7.944 4.3V7.51l6.467 3.788-6.467 3.787z"/></g></svg></svg>